<?xml version="1.0" encoding="UTF-8"?>
<svg viewBox="0 0 56 56" version="1.1" xmlns="http://www.w3.org/2000/svg" xmlns:xlink="http://www.w3.org/1999/xlink">
    <title>Education</title>
    <g id="Page-1" stroke="none" stroke-width="1" fill="none" fill-rule="evenodd">
        <g id="Artboard" transform="translate(-178.000000, -176.000000)">
            <g id="Group-2" transform="translate(178.000000, 176.000000)">
                <path d="M28.2118171,8 L50.988,22.255 L50.9930138,22.2554749 L50.993,22.258 L51.2040889,22.3908109 L50.993,22.538 L50.9930138,35.2554749 L47.9930138,35.2554749 L47.993,24.648 L43.06,28.117 L43.0608763,37.1173025 L28.2601123,47.5255352 L13.6747838,37.9450214 L13.674,28.944 L5,23.246906 L28.2118171,8 Z M40.06,30.227 L28.2601123,38.5255352 L16.674,30.914 L16.6740138,36.3254749 L28.2020138,43.8974749 L40.0600138,35.5594749 L40.06,30.227 Z M28.2510138,11.5634749 L10.4640138,23.2464749 L28.2020138,34.8974749 L45.7820138,22.5354749 L28.2510138,11.5634749 Z" id="Combined-Shape" fill="#000000" fill-rule="nonzero"></path>
            </g>
        </g>
    </g>
</svg>
