<?xml version="1.0" encoding="UTF-8"?>
<svg viewBox="0 0 56 56" version="1.1" xmlns="http://www.w3.org/2000/svg" xmlns:xlink="http://www.w3.org/1999/xlink">
    <title>Like</title>
    <g id="Page-1" stroke="none" stroke-width="1" fill="none" fill-rule="evenodd">
        <g id="Artboard" transform="translate(-344.000000, -32.000000)">
            <g id="Group-5" transform="translate(344.000000, 32.000000)">
                <path d="M37.6676221,6 C45.675751,6 52.1676221,12.4918711 52.1676221,20.5 C52.1676221,24.0313418 50.896615,27.3716719 48.6369921,29.9830854 L48.3818689,30.2702154 L48.2370493,30.4183439 L37.7171986,40.4602746 L33.5742891,36.1201939 L44.0006221,26.167 L44.1683442,25.9768286 C45.3799085,24.5414196 46.086269,22.7499246 46.1610141,20.838506 L46.1676221,20.5 C46.1676221,15.8055796 42.3620425,12 37.6676221,12 C33.7717646,12 31.6533277,13.460521 28.1047864,18.047348 C27.509418,17.195181 26.9084234,16.3971671 26.3018026,15.6533063 C23.9684119,13.0413038 21.9822046,12 18.5,12 C13.8055796,12 10,15.8055796 10,20.5 L10,20.5 L10.006608,20.838506 C10.0813531,22.7499246 10.7877136,24.5414196 11.9992779,25.9768286 L11.9992779,25.9768286 L12.168,26.167 L32.1676221,45.2595202 L28.0247125,49.5996009 L7.9305728,30.4183439 L7.78575319,30.2702154 L7.53062996,29.9830854 C5.2710071,27.3716719 4,24.0313418 4,20.5 C4,12.4918711 10.4918711,6 18.5,6 C22.5768438,6 25.4622137,7.00145019 28.0544932,9.04592963 C30.696613,7.03245496 33.6734745,6 37.6676221,6 Z" id="Combined-Shape" fill="#E9BAA7" fill-rule="nonzero"></path>
            </g>
        </g>
    </g>
</svg>
