<?xml version="1.0" encoding="UTF-8"?>
<svg viewBox="0 0 56 56" version="1.1" xmlns="http://www.w3.org/2000/svg" xmlns:xlink="http://www.w3.org/1999/xlink">
    <title>Location</title>
    <g id="Page-1" stroke="none" stroke-width="1" fill="none" fill-rule="evenodd">
        <g id="Artboard" transform="translate(-113.000000, -176.000000)">
            <g id="Group-3" transform="translate(113.000000, 176.000000)">
                <path d="M28.5,7 C37.0604136,7 44,13.9395864 44,22.5 C44,28.1360113 39.1971321,36.3694991 29.6369492,47.4784408 L29.6369492,47.4784408 L28.5,48.7995769 L26.9251897,46.9677612 C17.6562241,36.1167758 13,28.0493034 13,22.5 C13,13.9395864 19.9395864,7 28.5,7 Z M28.5,10 C21.5964406,10 16,15.5964406 16,22.5 C16,26.8114619 19.8560605,33.7556769 27.6039514,43.1143668 L27.6039514,43.1143668 L28.499,44.186 L29.3962604,43.114111 C37.0148088,33.9116131 40.8703133,27.0436936 40.9967829,22.7178863 L40.9967829,22.7178863 L41,22.5 C41,15.5964406 35.4035594,10 28.5,10 Z M28.5,15 C32.0898509,15 35,17.9101491 35,21.5 C35,25.0898509 32.0898509,28 28.5,28 C24.9101491,28 22,25.0898509 22,21.5 C22,17.9101491 24.9101491,15 28.5,15 Z M28.5,18 C26.5670034,18 25,19.5670034 25,21.5 C25,23.4329966 26.5670034,25 28.5,25 C30.4329966,25 32,23.4329966 32,21.5 C32,19.5670034 30.4329966,18 28.5,18 Z" id="Combined-Shape" fill="#000000" fill-rule="nonzero"></path>
            </g>
        </g>
    </g>
</svg>
