<?xml version="1.0" encoding="UTF-8"?>
<svg viewBox="0 0 86 41" version="1.1" xmlns="http://www.w3.org/2000/svg" xmlns:xlink="http://www.w3.org/1999/xlink">
    <g id="Page-1" stroke="none" stroke-width="1" fill="none" fill-rule="evenodd">
        <g id="Artboard" transform="translate(-321.000000, -231.000000)">
            <g id="Group-8" transform="translate(321.000000, 231.381225)">
                <path d="M32.3961069,5.68434189e-14 L32.5252246,0.118 L82.8557754,0.118774697 C82.9628232,0.118774697 83.0682996,0.125502777 83.1718047,0.138559137 L83.3292347,0.0231591446 L83.4523315,0.190393593 C84.5450015,0.457902254 85.3557754,1.44365527 85.3557754,2.6187747 L85.3501393,2.78655031 L85.3332565,2.95356944 L80.6035268,37.9535694 C80.443238,39.1397062 79.4677356,40.0377313 78.2881114,40.1135782 L78.1260457,40.1187747 L77.9352246,40.118 L77.7997487,40.2306221 L77.7062246,40.118 L27.5702246,40.118 L27.4430843,40.2393314 L27.3272246,40.118 L27.1442246,40.1187747 C25.7635127,40.1187747 24.6442246,38.9994866 24.6442246,37.6187747 L24.6498607,37.4509991 L24.6667435,37.28398 L25.2621867,32.8777002 L28.235164,33.2794539 L27.9122246,35.66 L47.1532246,17.426 L32.2072246,3.877 L31.913312,6.06115886 L28.9403347,5.65940517 L29.3964732,2.28397996 C29.556762,1.09784316 30.5322644,0.199818069 31.7118886,0.123971156 L31.8739543,0.118774697 L32.2882246,0.118 L32.3961069,5.68434189e-14 Z M49.3812246,19.446 L30.7352246,37.118 L75.2262246,37.118 L61.0462246,19.966 L54.8967505,24.4463572 L49.3812246,19.446 Z M82.0752246,4.648 L63.4752246,18.197 L77.8892246,35.631 L82.0752246,4.648 Z M79.0802246,3.118 L35.8352246,3.118 L55.103,20.5837747 L79.0802246,3.118 Z" id="Combined-Shape" fill="#6A42ED" fill-rule="nonzero"></path>
                <path d="M29.352941,25.6187747 L29.352941,28.6187747 L14,28.6187747 L14,25.6187747 L29.352941,25.6187747 Z M11,25.6187747 L11,28.6187747 L8,28.6187747 L8,25.6187747 L11,25.6187747 Z M35.705882,17.6187747 L35.705882,20.6187747 L1.98951966e-13,20.6187747 L1.98951966e-13,17.6187747 L35.705882,17.6187747 Z M33.0294115,9.6187747 L33.0294115,12.6187747 L10,12.6187747 L10,9.6187747 L33.0294115,9.6187747 Z" id="Combined-Shape" fill="#F6D6C8"></path>
            </g>
        </g>
    </g>
</svg>
