<?xml version="1.0" encoding="UTF-8"?>
<svg viewBox="0 0 56 56" version="1.1" xmlns="http://www.w3.org/2000/svg" xmlns:xlink="http://www.w3.org/1999/xlink">
    <title>Work</title>
    <g id="Page-1" stroke="none" stroke-width="1" fill="none" fill-rule="evenodd">
        <g id="Artboard" transform="translate(-48.000000, -176.000000)">
            <g id="Group-4" transform="translate(48.000000, 176.000000)">
                <path d="M34.5,9 C36.3685634,9 37.8951264,10.4642776 37.9948211,12.3079648 L38,12.5 L38,16 L44.5,16 C47.4634791,16 49.8795391,18.34378 49.9956328,21.2787929 L50,21.5 L50,42.5 C50,45.5375661 47.5375661,48 44.5,48 L44.5,48 L12.5,48 C9.46243388,48 7,45.5375661 7,42.5 L7,42.5 L7,21.5 C7,18.4624339 9.46243388,16 12.5,16 L12.5,16 L19,16 L19,12.5 C19,10.6314366 20.4642776,9.10487355 22.3079648,9.00517886 L22.5,9 L34.5,9 Z M16.5,19 L12.5,19 C11.1192881,19 10,20.1192881 10,21.5 L10,21.5 L10,42.5 C10,43.8807119 11.1192881,45 12.5,45 L12.5,45 L16.5,45 L16.5,19 Z M37.5,19 L19.5,19 L19.5,45 L37.5,45 L37.5,19 Z M44.5,19 L40.5,19 L40.5,45 L44.5,45 C45.8254834,45 46.9100387,43.9684641 46.9946823,42.6643757 L47,42.5 L47,21.5 C47,20.1192881 45.8807119,19 44.5,19 L44.5,19 Z M34.5,12 L22.5,12 C22.2545401,12 22.0503916,12.1768752 22.0080557,12.4101244 L22,12.5 L22,16 L35,16 L35,12.5 C35,12.2545401 34.8231248,12.0503916 34.5898756,12.0080557 L34.5,12 Z" id="Combined-Shape" fill="#000000" fill-rule="nonzero"></path>
            </g>
        </g>
    </g>
</svg>
